# Blender 3.3.1
# www.blender.org
o Cylinder
v 0.000000 -1.000000 -1.000000
v 0.000000 1.000000 -1.000000
v 0.464723 -1.000000 -0.885456
v 0.464723 1.000000 -0.885456
v 0.822984 -1.000000 -0.568065
v 0.822984 1.000000 -0.568065
v 0.992709 -1.000000 -0.120537
v 0.992709 1.000000 -0.120537
v 0.935016 -1.000000 0.354605
v 0.935016 1.000000 0.354605
v 0.663123 -1.000000 0.748511
v 0.663123 1.000000 0.748511
v 0.239316 -1.000000 0.970942
v 0.239316 1.000000 0.970942
v -0.239316 -1.000000 0.970942
v -0.239316 1.000000 0.970942
v -0.663123 -1.000000 0.748511
v -0.663123 1.000000 0.748511
v -0.935016 -1.000000 0.354605
v -0.935016 1.000000 0.354605
v -0.992709 -1.000000 -0.120537
v -0.992709 1.000000 -0.120537
v -0.822984 -1.000000 -0.568065
v -0.822984 1.000000 -0.568065
v -0.464723 -1.000000 -0.885456
v -0.464723 1.000000 -0.885456
vn 0.2393 -0.0000 -0.9709
vn 0.6631 -0.0000 -0.7485
vn 0.9350 -0.0000 -0.3546
vn 0.9927 -0.0000 0.1205
vn 0.8230 -0.0000 0.5681
vn 0.4647 -0.0000 0.8855
vn -0.0000 -0.0000 1.0000
vn -0.4647 -0.0000 0.8855
vn -0.8230 -0.0000 0.5681
vn -0.9927 -0.0000 0.1205
vn -0.9350 -0.0000 -0.3546
vn -0.0000 1.0000 -0.0000
vn -0.6631 -0.0000 -0.7485
vn -0.2393 -0.0000 -0.9709
vn -0.0000 -1.0000 -0.0000
vt 1.000000 0.500000
vt 0.000000 0.500000
vt 0.750000 0.490000
vt 1.000000 1.000000
vt 0.250000 0.490000
vt 0.000000 1.000000
vt 0.923077 0.500000
vt 0.861534 0.462509
vt 0.923077 1.000000
vt 0.361534 0.462509
vt 0.846154 0.500000
vt 0.947516 0.386336
vt 0.846154 1.000000
vt 0.447516 0.386336
vt 0.769231 0.500000
vt 0.988250 0.278929
vt 0.769231 1.000000
vt 0.488250 0.278929
vt 0.692308 0.500000
vt 0.974404 0.164895
vt 0.692308 1.000000
vt 0.474404 0.164895
vt 0.615385 0.500000
vt 0.909149 0.070357
vt 0.615385 1.000000
vt 0.409149 0.070357
vt 0.538462 0.500000
vt 0.807436 0.016974
vt 0.538462 1.000000
vt 0.307436 0.016974
vt 0.461538 0.500000
vt 0.692564 0.016974
vt 0.461538 1.000000
vt 0.192564 0.016974
vt 0.384615 0.500000
vt 0.590851 0.070357
vt 0.384615 1.000000
vt 0.090851 0.070357
vt 0.307692 0.500000
vt 0.525596 0.164895
vt 0.307692 1.000000
vt 0.025596 0.164895
vt 0.230769 0.500000
vt 0.511750 0.278929
vt 0.230769 1.000000
vt 0.011750 0.278929
vt 0.153846 0.500000
vt 0.552484 0.386336
vt 0.052484 0.386336
vt 0.153846 1.000000
vt 0.076923 0.500000
vt 0.638466 0.462509
vt 0.138466 0.462509
vt 0.076923 1.000000
s 0
f 2/4/1 3/7/1 1/1/1
f 4/9/2 5/11/2 3/7/2
f 6/13/3 7/15/3 5/11/3
f 8/17/4 9/19/4 7/15/4
f 10/21/5 11/23/5 9/19/5
f 12/25/6 13/27/6 11/23/6
f 14/29/7 15/31/7 13/27/7
f 16/33/8 17/35/8 15/31/8
f 18/37/9 19/39/9 17/35/9
f 20/41/10 21/43/10 19/39/10
f 22/45/11 23/47/11 21/43/11
f 2/5/12 20/42/12 12/26/12
f 24/50/13 25/51/13 23/47/13
f 26/54/14 1/2/14 25/51/14
f 3/8/15 11/24/15 19/40/15
f 2/4/1 4/9/1 3/7/1
f 4/9/2 6/13/2 5/11/2
f 6/13/3 8/17/3 7/15/3
f 8/17/4 10/21/4 9/19/4
f 10/21/5 12/25/5 11/23/5
f 12/25/6 14/29/6 13/27/6
f 14/29/7 16/33/7 15/31/7
f 16/33/8 18/37/8 17/35/8
f 18/37/9 20/41/9 19/39/9
f 20/41/10 22/45/10 21/43/10
f 22/45/11 24/50/11 23/47/11
f 6/14/12 4/10/12 2/5/12
f 2/5/12 26/53/12 24/49/12
f 24/49/12 22/46/12 20/42/12
f 20/42/12 18/38/12 16/34/12
f 16/34/12 14/30/12 12/26/12
f 12/26/12 10/22/12 8/18/12
f 8/18/12 6/14/12 2/5/12
f 2/5/12 24/49/12 20/42/12
f 20/42/12 16/34/12 12/26/12
f 12/26/12 8/18/12 2/5/12
f 24/50/13 26/54/13 25/51/13
f 26/54/14 2/6/14 1/2/14
f 25/52/15 1/3/15 3/8/15
f 3/8/15 5/12/15 7/16/15
f 7/16/15 9/20/15 11/24/15
f 11/24/15 13/28/15 15/32/15
f 15/32/15 17/36/15 19/40/15
f 19/40/15 21/44/15 23/48/15
f 23/48/15 25/52/15 3/8/15
f 3/8/15 7/16/15 11/24/15
f 11/24/15 15/32/15 19/40/15
f 19/40/15 23/48/15 3/8/15
